<svg xmlns="http://www.w3.org/2000/svg" width="177" height="178" viewBox="0 0 177 178" fill="none"><path d="M16.4778 157.851C16.4778 161.333 13.6551 164.156 10.1732 164.156L10.1732 11.2257L16.4778 11.2257L16.4778 157.851Z" fill="#D0B081"></path><path d="M156.543 17.7866C160.166 17.7866 163.103 14.8491 163.103 11.2257L10.1732 11.2257L10.1732 17.7866L156.543 17.7866Z" fill="#D0B081"></path><circle cx="14.2568" cy="172.663" r="5.2267" transform="rotate(-180 14.2568 172.663)" fill="#D2FF1D"></circle><circle cx="3.61489" cy="165.715" r="2.28925" transform="rotate(-180 3.61489 165.715)" stroke="#D0B081" stroke-width="0.857251"></circle><circle cx="171.214" cy="15.3094" r="5.2267" transform="rotate(-180 171.214 15.3094)" fill="#D2FF1D"></circle><path d="M3.61481 163.283L3.61483 3.33838L162.87 3.33839" stroke="#D0B081" stroke-width="1.143"></path><circle cx="164.965" cy="3.33843" r="2.28925" transform="rotate(-180 164.965 3.33843)" stroke="#D0B081" stroke-width="0.857251"></circle></svg>