<svg xmlns="http://www.w3.org/2000/svg" width="406" height="235" viewBox="0 0 406 235" fill="none"><path d="M45.6132 62.5467V75.42C45.6132 90.9229 37.8623 99.7817 22.9122 99.7817C7.96218 99.7817 0.211304 90.9229 0.211304 75.42V25.0345C0.211304 9.53173 7.96301 0.672852 22.9122 0.672852C37.8615 0.672852 45.6132 9.53173 45.6132 25.0345V34.4478H31.2176V24.0659C31.2176 17.1449 28.1724 14.5149 23.3279 14.5149C18.4834 14.5149 15.4375 17.1451 15.4375 24.0659V76.3888C15.4375 83.3094 18.4826 85.8012 23.3279 85.8012C28.1733 85.8012 31.2176 83.3094 31.2176 76.3888V62.5467H45.6132Z" fill="white"></path><path d="M104.167 98.6748H88.8031L86.1732 81.0953H67.486L64.8568 98.6748H50.8762L66.3789 1.78003H88.6648L104.167 98.6748ZM69.4236 67.9455H84.0966L76.7607 18.9442L69.4236 67.9455Z" fill="white"></path><path d="M143.482 70.5746L153.864 1.78003H175.041V98.6748H160.646V29.1875L150.126 98.6747H135.731L124.379 30.156V98.6748H111.09V1.78003H132.269L143.482 70.5746Z" fill="white"></path><path d="M200.653 1.78003V76.5271C200.653 83.4483 203.698 85.9401 208.543 85.9401C213.388 85.9401 216.433 83.4484 216.433 76.5271V1.78003H230.829V75.5589C230.829 91.0619 223.078 99.9207 208.128 99.9207C193.177 99.9207 185.426 91.0619 185.426 75.5589V1.78003H200.653Z" fill="white"></path><path d="M254.778 28.4954V98.6748H241.074V1.78003H260.176L275.819 59.7781V1.78003H289.384V98.6748H273.742L254.778 28.4954Z" fill="white"></path><path d="M300.32 1.78003H324.406C339.632 1.78003 347.106 10.224 347.106 25.7267V74.7277C347.106 90.2306 339.631 98.6749 324.406 98.6749H300.32V1.78003ZM315.547 15.622V84.833H324.129C328.973 84.833 331.88 82.3413 331.88 75.42V25.0345C331.88 18.1135 328.973 15.622 324.129 15.622H315.547Z" fill="white"></path><path d="M405.939 98.6748H390.575L387.944 81.0953H369.257L366.627 98.6748H352.647L368.15 1.78003H390.436L405.939 98.6748ZM371.195 67.9455H385.867L378.532 18.9442L371.195 67.9455Z" fill="white"></path><path d="M51.8225 191.916V206.55C51.8225 224.173 43.0116 234.244 26.0169 234.244C9.02219 234.244 0.211304 224.173 0.211304 206.55V149.274C0.211304 131.65 9.0232 121.58 26.0169 121.58C43.0106 121.58 51.8225 131.65 51.8225 149.274V159.974H35.4581V148.172C35.4581 140.305 31.9967 137.315 26.4895 137.315C20.9824 137.315 17.5199 140.305 17.5199 148.172V207.651C17.5199 215.519 20.9813 218.351 26.4895 218.351C31.9977 218.351 35.4581 215.519 35.4581 207.651V191.916H51.8225Z" fill="white"></path><path d="M60.9517 149.274C60.9517 131.65 70.2354 121.58 87.2301 121.58C104.225 121.58 113.507 131.65 113.507 149.274V206.55C113.507 224.174 104.223 234.244 87.2301 234.244C70.2368 234.244 60.9517 224.174 60.9517 206.55V149.274ZM78.2602 207.651C78.2602 215.519 81.7223 218.509 87.2301 218.509C92.738 218.509 96.1987 215.519 96.1987 207.651V148.173C96.1987 140.305 92.7374 137.315 87.2301 137.315C81.7229 137.315 78.2602 140.305 78.2602 148.173V207.651Z" fill="white"></path><path d="M140.102 153.208V232.985H124.524V122.839H146.239L164.02 188.769V122.839H179.44V232.984H161.659L140.102 153.208Z" fill="white"></path><path d="M211.036 121.816V233.13H405.823V121.816H211.036ZM244.335 202.317H265.003V212.252H233.405V203.706C233.405 183.239 255.066 179.859 255.066 159.788C255.066 153.529 252.88 151.839 249.402 151.839C245.924 151.839 243.739 153.727 243.739 158.695V166.147H233.405V159.391C233.405 148.262 238.969 141.903 249.701 141.903C260.433 141.903 265.996 148.262 265.996 159.391C265.996 181.25 244.235 189.398 244.235 200.825C244.235 201.322 244.235 201.818 244.335 202.317ZM305.049 195.559C305.049 206.688 299.186 213.047 288.455 213.047C277.725 213.047 271.861 206.688 271.861 195.559V159.391C271.861 148.262 277.723 141.903 288.455 141.903C299.187 141.903 305.049 148.262 305.049 159.391V195.559ZM323.036 202.317H343.704V212.252H312.106V203.706C312.106 183.239 333.767 179.859 333.767 159.788C333.767 153.529 331.581 151.839 328.103 151.839C324.625 151.839 322.44 153.727 322.44 158.695V166.147H312.106V159.391C312.106 148.262 317.671 141.903 328.402 141.903C339.133 141.903 344.697 148.262 344.697 159.391C344.697 181.25 322.936 189.398 322.936 200.825C322.936 201.322 322.936 201.818 323.036 202.317ZM383.452 161.18C383.452 168.632 381.067 173.301 375.8 175.488C381.266 177.872 383.452 183.039 383.452 190.095V195.559C383.452 206.688 377.887 213.047 367.157 213.047C356.427 213.047 350.86 206.688 350.86 195.559V189.796H361.194V196.254C361.194 201.223 363.38 203.11 366.858 203.11C370.336 203.11 372.522 201.422 372.522 195.261V189.796C372.522 183.336 370.336 180.952 365.368 180.952H361.691V171.016H365.963C370.038 171.016 372.522 169.227 372.522 163.662V159.788C372.522 153.529 370.336 151.839 366.858 151.839C363.38 151.839 361.194 153.727 361.194 158.695V163.166H350.86V159.391C350.86 148.262 356.424 141.904 367.156 141.904C377.888 141.904 383.452 148.262 383.452 159.391V161.18Z" fill="#D0B081"></path><path d="M288.455 151.839C284.977 151.839 282.791 153.727 282.791 158.695V196.254C282.791 201.224 284.977 203.11 288.455 203.11C291.933 203.11 294.119 201.224 294.119 196.254V158.695C294.119 153.727 291.932 151.839 288.455 151.839Z" fill="#D0B081"></path></svg>